<svg xmlns="http://www.w3.org/2000/svg" width="2501" height="1875" fill="none" viewBox="0 0 2501 1875">
  <g clip-path="url(#a)">
    <path fill="#CF649A" d="M2151.51 1077.15c-87.41.49-163.09 21.48-226.57 52.74-23.43-46.39-46.87-86.92-50.77-117.19-4.4-35.156-9.77-56.645-4.4-98.633 5.37-41.997 29.78-101.567 29.78-106.45-.49-4.394-5.37-25.879-55.66-26.367-50.29-.488-93.75 9.766-98.63 22.949-4.89 13.184-14.65 43.457-21 74.707-8.79 45.899-100.58 208.494-152.83 293.944-17.09-33.2-31.74-62.5-34.67-85.94-4.39-35.15-9.77-56.64-4.39-98.629 5.37-41.997 29.78-101.562 29.78-106.445-.49-4.395-5.37-25.879-55.66-26.367-50.3-.489-93.75 9.765-98.63 22.949-4.88 13.183-10.25 44.433-21 74.707-10.26 30.273-132.33 301.755-164.06 372.555-16.12 36.14-30.27 64.94-40.53 84.48-10.26 19.53-.49 1.46-1.47 3.41-8.79 16.61-13.67 25.88-13.67 25.88v.5c-6.83 12.2-14.16 23.92-17.58 23.92-2.44 0-7.33-32.72.98-77.63 18.06-94.25 62.01-241.22 61.52-246.59 0-2.44 8.3-28.32-28.32-41.5-35.65-13.18-48.34 8.79-51.27 8.79-2.93 0-5.37 7.81-5.37 7.81s39.55-165.522-75.69-165.522c-72.261 0-171.87 78.612-221.187 150.392-31.25 17.09-97.656 53.22-167.969 91.8-26.855 14.64-54.687 30.27-81.054 44.43l-5.366-5.87c-139.649-148.93-397.95-254.394-387.207-454.589 3.906-72.754 29.296-264.649 496.098-497.071 382.325-190.43 688.475-138.183 741.695-21.972 75.68 166.015-163.57 474.609-561.031 519.043-151.367 17.089-230.962-41.504-250.976-63.477-20.996-22.949-23.926-23.926-31.739-19.531-12.695 6.836-4.882 27.343 0 39.55 11.719 30.762 60.547 85.45 143.555 112.793 72.749 23.926 250.488 37.11 465.331-45.898 240.72-93.262 428.71-352.051 373.54-568.359-56.16-220.215-421.39-292.48-766.605-169.922-205.572 73.242-428.228 187.5-588.384 337.402C19.671 575.684-10.602 730.957 2.093 795.41c44.439 229.98 361.328 379.88 488.281 490.72-6.347 3.42-12.207 6.83-17.578 9.77-63.476 31.24-305.176 157.71-365.722 291.5-68.36 151.36 10.742 260.26 63.476 274.9 163.086 45.41 330.078-36.13 420.41-170.41 89.839-134.27 79.102-308.59 37.598-388.18l-1.47-2.93 49.805-29.3c32.231-19.04 63.97-36.62 91.797-51.76-15.62 42.48-26.856 92.78-32.71 166.02-6.836 85.94 28.32 197.26 74.707 241.21 20.508 19.04 44.922 19.53 60.058 19.53 53.711 0 78.125-44.44 104.981-97.66 33.204-64.94 62.504-140.13 62.504-140.13s-36.63 203.61 63.47 203.61c36.62 0 73.24-47.36 89.85-71.78v.49s.97-1.46 2.93-4.88c2.04-3.03 4-6.12 5.86-9.27v-.98c14.64-25.39 47.36-83.5 96.19-179.69 62.98-124.02 123.53-279.3 123.53-279.3s5.86 38.09 23.93 100.59c10.73 37.11 34.17 77.64 52.24 117.19-14.65 20.51-23.44 32.23-23.44 32.23l.49.49c-11.71 15.62-24.9 32.23-38.57 48.83-49.8 59.57-109.37 127.44-117.19 146.97-9.27 22.95-7.32 40.04 10.74 53.71 13.19 9.77 36.63 11.72 61.53 9.77 44.92-2.93 76.17-14.16 91.8-21 24.41-8.79 52.24-21.97 79.1-41.5 48.82-36.13 78.61-87.4 75.68-155.76-1.46-37.6-13.67-74.71-28.81-109.87 4.4-6.34 8.8-12.7 13.19-19.53 77.14-112.79 136.71-236.813 136.71-236.813s5.86 38.083 23.93 100.583c9.27 31.74 27.83 66.41 44.43 100.59-72.26 59.09-117.67 127.45-133.3 172.37-28.81 83.01-6.34 120.6 36.14 129.39 19.03 3.91 46.38-4.88 66.89-13.67 25.39-8.3 56.15-22.47 84.47-43.46 48.83-36.13 95.71-86.42 93.26-154.29-1.46-31.25-9.76-62.02-20.99-91.31 61.52-25.39 141.11-40.04 242.19-27.83 217.28 25.39 260.25 161.13 251.95 217.77-8.3 56.64-53.71 87.89-68.85 97.66-15.14 9.27-20.02 12.7-18.55 19.53 1.95 10.26 8.79 9.76 21.97 7.81 18.07-2.93 114.26-46.38 118.16-150.87 5.86-134.3-121.58-280.78-347.65-279.32ZM475.726 1642.09c-71.777 78.61-172.852 108.4-215.82 83.01-46.387-26.86-28.326-142.58 60.058-226.08 53.711-50.78 123.535-97.65 169.434-126.46 10.254-6.35 25.879-15.62 44.433-26.86 2.93-1.95 4.883-2.93 4.883-2.93 3.418-1.95 7.324-4.39 11.231-6.83 32.714 119.14 1.464 223.63-74.219 306.15Zm524.904-356.93c-24.904 61.03-77.638 217.77-109.377 208.98-27.348-7.32-43.945-125.98-5.376-243.16 19.532-59.09 61.035-129.4 85.449-156.75 39.554-43.94 82.524-58.59 93.264-40.52 12.7 23.44-48.34 193.36-63.96 231.45Zm433.1 207.03c-10.74 5.37-20.5 9.27-24.9 6.35-3.42-1.95 4.39-9.28 4.39-9.28s54.2-58.1 75.68-84.96c12.21-15.62 26.86-33.68 42.49-54.2v5.86c0 70.31-67.38 117.18-97.66 136.23Zm333.98-76.17c-7.81-5.86-6.83-23.93 19.53-80.57 10.26-22.46 33.7-60.06 74.22-95.7 4.89 14.64 7.82 28.8 7.33 41.99-.49 87.89-62.99 120.6-101.08 134.28Z"/>
  </g>
  <defs>
    <clipPath id="a">
      <path fill="#fff" d="M0 0h2500v1875H0z" transform="translate(.14)"/>
    </clipPath>
  </defs>
</svg>
