<svg xmlns="http://www.w3.org/2000/svg" width="2184" height="2500" fill="none" viewBox="0 0 2184 2500">
  <g clip-path="url(#a)">
    <path fill="#1B73BA" d="M182.861 2238.11.07 4.194l2183 4.489-193.28 2229.427-889.98 257.7-916.949-257.7Z"/>
    <path fill="#1C88C7" d="M1099.81 2280.06V216.948l898.97 2.993-160.31 1845.869-738.66 214.25Z"/>
    <path fill="#fff" d="M1775.54 480.651H392.623l37.463 269.671h656.234L440.578 1027.51l37.446 260.69h951.416l-34.47 364.07-322.13 62.94-292.154-74.91-22.481-206.77H490.013l35.949 430.02 575.348 160.31 551.38-175.3 70.42-840.54h-582.86l635.27-263.684.02-263.685Z"/>
  </g>
  <defs>
    <clipPath id="a">
      <path fill="#fff" d="M0 0h2183v2500H0z" transform="translate(.07)"/>
    </clipPath>
  </defs>
</svg>
