<svg xmlns="http://www.w3.org/2000/svg" width="1667" height="2500" fill="none" viewBox="0 0 1667 2500">
  <g clip-path="url(#a)">
    <path fill="#0ACF83" d="M416.833 2500c230 0 416.667-186.67 416.667-416.67v-416.66H416.833c-230 0-416.666 186.66-416.666 416.66 0 230 186.666 416.67 416.666 416.67Z"/>
    <path fill="#A259FF" d="M.167 1250c0-230 186.666-416.667 416.666-416.667H833.5v833.337H416.833C186.833 1666.67.167 1480 .167 1250Z"/>
    <path fill="#F24E1E" d="M.167 416.667C.167 186.667 186.833 0 416.833 0H833.5v833.333H416.833c-230 0-416.666-186.666-416.666-416.666Z"/>
    <path fill="#FF7262" d="M833.5 0h416.67c230 0 416.66 186.667 416.66 416.667 0 230-186.66 416.666-416.66 416.666H833.5V0Z"/>
    <path fill="#1ABCFE" d="M1666.83 1250c0 230-186.66 416.67-416.66 416.67-230 0-416.67-186.67-416.67-416.67 0-230 186.67-416.667 416.67-416.667 230 0 416.66 186.667 416.66 416.667Z"/>
  </g>
  <defs>
    <clipPath id="a">
      <path fill="#fff" d="M0 0h1667v2500H0z"/>
    </clipPath>
  </defs>
</svg>
